<?xml version="1.0" encoding="UTF-8" standalone="no"?>
<svg
   xmlns:dc="http://purl.org/dc/elements/1.1/"
   xmlns:cc="http://creativecommons.org/ns#"
   xmlns:rdf="http://www.w3.org/1999/02/22-rdf-syntax-ns#"
   xmlns:svg="http://www.w3.org/2000/svg"
   xmlns="http://www.w3.org/2000/svg"
   xmlns:sodipodi="http://sodipodi.sourceforge.net/DTD/sodipodi-0.dtd"
   xmlns:inkscape="http://www.inkscape.org/namespaces/inkscape"
   width="227.34476mm"
   height="33.622002mm"
   viewBox="0 0 227.34476 33.622002"
   version="1.1"
   id="svg2280"
   inkscape:version="1.0.1 (3bc2e813f5, 2020-09-07)"
   sodipodi:docname="svg_white_budgetingBears_text.svg">
  <defs
     id="defs2274" />
  <sodipodi:namedview
     id="base"
     pagecolor="#ffffff"
     bordercolor="#666666"
     borderopacity="1.0"
     inkscape:pageopacity="0.0"
     inkscape:pageshadow="2"
     inkscape:zoom="0.35"
     inkscape:cx="472.48503"
     inkscape:cy="126.3948"
     inkscape:document-units="mm"
     inkscape:current-layer="layer1"
     inkscape:document-rotation="0"
     showgrid="false"
     fit-margin-top="0"
     fit-margin-left="0"
     fit-margin-right="0"
     fit-margin-bottom="0"
     inkscape:window-width="1313"
     inkscape:window-height="1208"
     inkscape:window-x="2228"
     inkscape:window-y="464"
     inkscape:window-maximized="0" />
  <metadata
     id="metadata2277">
    <rdf:RDF>
      <cc:Work
         rdf:about="">
        <dc:format>image/svg+xml</dc:format>
        <dc:type
           rdf:resource="http://purl.org/dc/dcmitype/StillImage" />
        <dc:title></dc:title>
      </cc:Work>
    </rdf:RDF>
  </metadata>
  <g
     inkscape:label="Ebene 1"
     inkscape:groupmode="layer"
     id="layer1"
     transform="translate(19.178331,-114.72471)">
    <g
       aria-label="budgetingBears"
       id="text834"
       style="font-weight:bold;font-size:36.9067px;line-height:1.25;font-family:Taz;-inkscape-font-specification:'Taz Bold';fill:#ffffff;stroke-width:0.922669"
       transform="translate(-83.994044,-252.66934)">
      <path
         d="m 80.205807,384.51876 c 0,-6.42177 -2.398936,-9.70646 -5.831259,-9.70646 -1.550081,0 -2.878722,0.62741 -4.724057,2.10368 v -9.52193 l -4.834778,0.73813 v 26.09304 h 3.949017 l 0.405974,-1.95606 c 1.771521,1.69771 2.952536,2.36203 4.502617,2.36203 3.616857,0 6.532486,-3.3216 6.532486,-10.11243 z m -4.945498,0.11072 c 0,3.80139 -1.070294,5.57291 -2.657282,5.57291 -0.848854,0 -1.771522,-0.62741 -2.952536,-1.77152 v -7.45516 c 1.217921,-1.1072 2.288215,-1.73461 3.100162,-1.73461 1.623895,0 2.509656,1.80843 2.509656,5.38838 z"
         style="fill:#ffffff;stroke-width:0.922669"
         id="path895" />
      <path
         d="m 83.232086,375.21827 v 12.84353 c 0,4.4288 2.029868,6.53249 4.945498,6.53249 1.808428,0 3.284696,-0.5167 5.536005,-2.36203 l 0.405973,1.99296 h 4.022831 v -19.00695 h -4.871685 v 13.36022 c -1.181014,1.10721 -2.325122,1.6239 -3.173976,1.6239 -1.402455,0 -2.029869,-1.55008 -2.029869,-3.43232 v -11.5518 z"
         style="fill:#ffffff;stroke-width:0.922669"
         id="path897" />
      <path
         d="m 116.59574,394.22522 v -26.83117 l -4.83477,0.73813 v 8.56236 c -1.58699,-1.36555 -2.65729,-1.88224 -3.98593,-1.88224 -3.65376,0 -6.53248,3.3216 -6.53248,10.14934 0,6.42176 2.36203,9.66955 5.79435,9.66955 1.51317,0 2.87872,-0.5536 5.16694,-2.39893 l 0.40597,1.99296 z m -4.83477,-5.75745 c -1.18102,1.10721 -2.21441,1.73462 -3.10017,1.73462 -1.58698,0 -2.50965,-1.80843 -2.50965,-5.38838 0,-3.80139 1.1072,-5.536 2.65728,-5.536 0.88576,0 1.80843,0.5905 2.95254,1.6608 z"
         style="fill:#ffffff;stroke-width:0.922669"
         id="path899" />
      <path
         d="m 135.08598,393.30255 v -18.08428 h -3.94902 l -0.40597,1.95605 c -1.84534,-1.80842 -3.02635,-2.36202 -4.46571,-2.36202 -3.65377,0 -6.53249,3.3216 -6.53249,10.03862 0,6.31104 2.36203,9.59574 5.79435,9.59574 1.55008,0 2.91563,-0.59051 4.76097,-2.14059 v 1.69771 c 0,2.02987 -0.59051,3.3216 -3.76449,3.3216 h -4.46571 l 0.66432,3.39542 c 1.29174,0.22144 2.95254,0.29525 4.72406,0.29525 3.80139,0 7.63969,-1.51317 7.63969,-7.7135 z m -4.83478,-4.9824 c -1.18101,1.14411 -2.25131,1.73461 -3.10016,1.73461 -1.58699,0 -2.50966,-1.80843 -2.50966,-5.31456 0,-3.69067 1.1072,-5.46219 2.65728,-5.46219 0.88577,0 1.80843,0.5905 2.95254,1.6977 z"
         style="fill:#ffffff;stroke-width:0.922669"
         id="path901" />
      <path
         d="m 153.17019,393.08111 -0.88576,-3.35851 c -2.10368,0.59051 -4.35499,0.92267 -5.83126,0.92267 -2.39894,0 -3.43232,-1.29173 -3.43232,-4.4288 h 10.26006 c 0.11072,-0.92267 0.14763,-2.10369 0.14763,-2.95254 0,-5.75745 -3.02635,-8.45163 -7.1599,-8.45163 -5.24076,0 -8.11948,3.39541 -8.11948,10.00171 0,6.64321 2.02987,9.78028 7.60278,9.78028 2.47275,0 4.79787,-0.44288 7.41825,-1.51318 z m -4.50262,-10.37078 h -5.68363 c 0.0369,-2.14059 0.84885,-4.13355 2.91563,-4.13355 2.02987,0 2.768,1.69771 2.768,3.8752 z"
         style="fill:#ffffff;stroke-width:0.922669"
         id="path903" />
      <path
         d="m 165.31243,393.96687 -0.29525,-3.72757 c -0.66432,0.11072 -1.25483,0.18453 -1.66081,0.18453 -1.25482,0 -1.51317,-0.44288 -1.51317,-1.77152 v -9.63265 h 3.46923 v -3.80139 h -3.46923 v -5.86817 l -4.87168,0.66432 v 5.20385 h -2.28822 v 3.80139 h 2.28822 v 10.4815 c 0,4.17046 2.06677,5.09313 4.46571,5.09313 1.36554,0 2.84181,-0.29526 3.8752,-0.62742 z"
         style="fill:#ffffff;stroke-width:0.922669"
         id="path905" />
      <path
         d="m 172.80444,372.19192 v -4.61334 h -4.83478 v 4.61334 z m 0,22.0333 v -19.00695 h -4.83478 v 19.00695 z"
         style="fill:#ffffff;stroke-width:0.922669"
         id="path907" />
      <path
         d="m 191.55299,394.22522 v -12.84353 c 0,-4.42881 -2.02987,-6.56939 -4.9824,-6.56939 -1.84534,0 -3.21088,0.47978 -5.53601,2.39893 l -0.36906,-1.99296 h -4.02283 v 19.00695 h 4.83477 v -13.24951 c 1.21792,-1.1441 2.28822,-1.6977 3.17398,-1.6977 1.43936,0 2.02987,1.51317 2.02987,3.39541 v 11.5518 z"
         style="fill:#ffffff;stroke-width:0.922669"
         id="path909" />
      <path
         d="m 209.96943,393.30255 v -18.08428 h -3.94901 l -0.40598,1.95605 c -1.84533,-1.80842 -3.02635,-2.36202 -4.46571,-2.36202 -3.65376,0 -6.53249,3.3216 -6.53249,10.03862 0,6.31104 2.36203,9.59574 5.79436,9.59574 1.55008,0 2.91563,-0.59051 4.76096,-2.14059 v 1.69771 c 0,2.02987 -0.59051,3.3216 -3.76448,3.3216 h -4.46571 l 0.66432,3.39542 c 1.29173,0.22144 2.95253,0.29525 4.72405,0.29525 3.8014,0 7.63969,-1.51317 7.63969,-7.7135 z m -4.83478,-4.9824 c -1.18101,1.14411 -2.2513,1.73461 -3.10016,1.73461 -1.58699,0 -2.50965,-1.80843 -2.50965,-5.31456 0,-3.69067 1.1072,-5.46219 2.65728,-5.46219 0.88576,0 1.80843,0.5905 2.95253,1.6977 z"
         style="fill:#ffffff;stroke-width:0.922669"
         id="path911" />
      <path
         d="m 230.23114,386.69625 c 0,-2.73109 -1.32864,-4.94549 -4.28118,-5.57291 2.32512,-0.73813 3.46923,-2.62037 3.46923,-5.20384 0,-4.90859 -3.24779,-6.6063 -8.70998,-6.6063 -2.1775,0 -4.3919,0.0369 -6.75393,0.0738 v 24.83821 c 2.32513,0 4.57643,0.0369 6.82774,0.0369 5.83126,0 9.44812,-2.58347 9.44812,-7.56588 z m -5.68363,-10.33387 c 0,1.73461 -0.62742,3.17397 -4.50262,3.17397 -0.36907,0 -0.66432,0 -1.1072,-0.0369 v -6.0527 c 0.36906,-0.0369 0.70122,-0.0738 1.32864,-0.0738 3.57995,0 4.28118,1.10721 4.28118,2.98945 z m 0.44288,10.40769 c 0,1.6608 -0.44288,3.43232 -4.50262,3.43232 -0.66432,0 -1.03339,0 -1.55008,-0.0738 v -6.64321 c 0.40597,0 0.73813,-0.0369 1.07029,-0.0369 4.20737,0 4.98241,1.47627 4.98241,3.32161 z"
         style="fill:#ffffff;stroke-width:0.922669"
         id="path913" />
      <path
         d="m 247.57726,393.08111 -0.88576,-3.35851 c -2.10368,0.59051 -4.35499,0.92267 -5.83126,0.92267 -2.39893,0 -3.43232,-1.29173 -3.43232,-4.4288 h 10.26006 c 0.11072,-0.92267 0.14763,-2.10369 0.14763,-2.95254 0,-5.75745 -3.02635,-8.45163 -7.1599,-8.45163 -5.24075,0 -8.11947,3.39541 -8.11947,10.00171 0,6.64321 2.02986,9.78028 7.60278,9.78028 2.47275,0 4.79787,-0.44288 7.41824,-1.51318 z m -4.50261,-10.37078 h -5.68364 c 0.0369,-2.14059 0.84886,-4.13355 2.91563,-4.13355 2.02987,0 2.76801,1.69771 2.76801,3.8752 z"
         style="fill:#ffffff;stroke-width:0.922669"
         id="path915" />
      <path
         d="m 260.45765,386.14265 v 2.54656 c -1.47627,1.40246 -2.47275,1.99297 -3.57995,1.99297 -1.18102,0 -1.99297,-0.99648 -1.99297,-2.32513 0,-1.36554 0.81195,-2.2144 4.35499,-2.2144 z m 0.44288,6.0527 0.40597,2.02987 h 3.98592 v -13.06497 c 0,-4.65025 -1.84533,-6.34795 -7.01227,-6.34795 -2.39894,0 -5.05622,0.66432 -7.52897,1.6977 l 0.92267,3.35851 c 2.02987,-0.66432 4.09664,-1.21792 5.86817,-1.21792 2.47274,0 2.91563,1.21792 2.91563,3.43233 v 0.51669 h -1.0703 c -6.49558,0 -9.41121,2.32512 -9.41121,5.94198 0,3.65376 2.28822,6.0896 5.31457,6.0896 2.2144,0 3.61685,-0.70122 5.60982,-2.43584 z"
         style="fill:#ffffff;stroke-width:0.922669"
         id="path917" />
      <path
         d="m 278.65264,379.86851 v -5.05621 h -0.81195 c -1.47627,0 -2.2144,0.44288 -4.35499,2.73109 l -0.44288,-2.32512 h -3.94902 v 19.00695 h 4.83478 v -12.62209 c 1.32864,-1.21792 2.14059,-1.73462 3.54305,-1.73462 z"
         style="fill:#ffffff;stroke-width:0.922669"
         id="path919" />
      <path
         d="m 292.16047,388.76303 c 0,-2.47275 -1.07029,-4.35499 -4.46571,-5.94198 -2.43584,-1.21792 -2.91563,-1.69771 -2.91563,-2.7311 0,-0.88576 0.62741,-1.51317 1.84533,-1.51317 1.21793,0 2.39894,0.51669 3.57995,1.03339 l 1.36555,-3.39542 c -1.62389,-0.92267 -3.35851,-1.40245 -5.31456,-1.40245 -3.80139,0 -6.23723,2.28821 -6.23723,5.57291 0,2.50965 1.18101,4.4288 4.35499,5.86816 2.43584,1.25483 2.84181,1.77152 2.84181,2.76801 0,0.88576 -0.51669,1.6608 -2.06677,1.6608 -1.0703,0 -2.32513,-0.36907 -3.80139,-1.18102 l -1.43936,3.54305 c 1.80842,1.03338 3.39541,1.55008 5.75744,1.55008 3.76448,0 6.49558,-2.10369 6.49558,-5.83126 z"
         style="fill:#ffffff;stroke-width:0.922669"
         id="path921" />
    </g>
  </g>
</svg>
