<?xml version="1.0" encoding="UTF-8" standalone="no"?>
<svg
   xmlns:dc="http://purl.org/dc/elements/1.1/"
   xmlns:cc="http://creativecommons.org/ns#"
   xmlns:rdf="http://www.w3.org/1999/02/22-rdf-syntax-ns#"
   xmlns:svg="http://www.w3.org/2000/svg"
   xmlns="http://www.w3.org/2000/svg"
   xmlns:sodipodi="http://sodipodi.sourceforge.net/DTD/sodipodi-0.dtd"
   xmlns:inkscape="http://www.inkscape.org/namespaces/inkscape"
   width="151.21808mm"
   height="142.65303mm"
   viewBox="0 0 151.21808 142.65303"
   version="1.1"
   id="svg1096"
   inkscape:version="1.0.1 (3bc2e813f5, 2020-09-07)"
   sodipodi:docname="svg_white_head.svg">
  <defs
     id="defs1090" />
  <sodipodi:namedview
     id="base"
     pagecolor="#ffffff"
     bordercolor="#666666"
     borderopacity="1.0"
     inkscape:pageopacity="0.0"
     inkscape:pageshadow="2"
     inkscape:zoom="0.35"
     inkscape:cx="328.62361"
     inkscape:cy="361.00911"
     inkscape:document-units="mm"
     inkscape:current-layer="layer1"
     inkscape:document-rotation="0"
     showgrid="false"
     fit-margin-top="0"
     fit-margin-left="0"
     fit-margin-right="0"
     fit-margin-bottom="0"
     inkscape:window-width="1920"
     inkscape:window-height="1001"
     inkscape:window-x="2091"
     inkscape:window-y="455"
     inkscape:window-maximized="1" />
  <metadata
     id="metadata1093">
    <rdf:RDF>
      <cc:Work
         rdf:about="">
        <dc:format>image/svg+xml</dc:format>
        <dc:type
           rdf:resource="http://purl.org/dc/dcmitype/StillImage" />
        <dc:title></dc:title>
      </cc:Work>
    </rdf:RDF>
  </metadata>
  <g
     inkscape:label="Ebene 1"
     inkscape:groupmode="layer"
     id="layer1"
     transform="translate(-18.885004,-52.649672)">
    <path
       style="fill:#ffffff;stroke-width:0.183085"
       d="m 90.651789,195.18871 c -3.023262,-0.26841 -7.954021,-1.23019 -9.245812,-1.80345 -0.201398,-0.0894 -0.778108,-0.30896 -1.281599,-0.48798 -1.86181,-0.66196 -4.834412,-2.28771 -6.602201,-3.61081 -2.692369,-2.0151 -4.66108,-4.16383 -6.405348,-6.99108 -0.835801,-1.35472 -1.160582,-1.96758 -1.695152,-3.19864 -0.822539,-1.89419 -0.99388,-2.222 -1.18868,-2.27421 -0.121071,-0.0325 -0.714459,-0.19533 -1.318649,-0.36195 -0.604171,-0.16663 -1.386872,-0.38077 -1.73931,-0.47588 -1.214411,-0.32772 -5.584862,-1.66911 -5.95027,-1.82629 -0.201401,-0.0866 -0.53095,-0.19909 -0.73234,-0.24992 -0.44908,-0.11335 -2.427819,-0.81861 -2.929372,-1.04409 -0.201398,-0.0905 -1.025278,-0.41674 -1.830858,-0.72491 -0.805572,-0.30817 -1.62946,-0.6318 -1.83085,-0.71919 -0.201391,-0.0874 -0.654529,-0.27867 -1.00697,-0.42506 -3.304551,-1.37253 -8.512771,-4.02167 -10.942911,-5.56605 -0.53061,-0.33722 -1.00786,-0.61312 -1.06056,-0.61312 -0.0526,0 -0.52483,-0.32086 -1.04918,-0.71303 -1.02151,-0.76398 -2.10442,-1.8592 -3.0061,-3.04022 -0.49975,-0.65458 -0.77716,-1.11359 -1.88106,-3.11245 -0.91462,-1.6561 -2.32188,-5.69244 -2.90438,-8.33039 -0.10006,-0.45313 -0.30463,-1.35941 -0.45459,-2.01393 -0.69804,-3.04665 -1.34078,-7.46289 -1.7853,-12.26673 -0.32022,-3.46053 -0.4274,-15.25196 -0.17124,-18.83811 0.60887,-8.52364 0.99885,-12.02015 1.82982,-16.40583 0.11448,-0.604189 0.28491,-1.551659 0.37875,-2.10549 0.17336,-1.023221 0.27052,-1.471999 0.81257,-3.75325 0.16749,-0.704879 0.36732,-1.569961 0.44409,-1.922391 0.15919,-0.730959 0.7732,-2.75898 1.43369,-4.735409 0.51415,-1.538539 0.53026,-1.499719 -0.95911,-2.311429 -1.5727,-0.85711 -3.40022,-2.4525 -4.94567,-4.31745 -0.40687,-0.490982 -1.92003,-2.854031 -1.92003,-2.998431 0,-0.0501 -0.19544,-0.52582 -0.4343,-1.05723 -1.88562,-4.19502 -1.85702,-9.13565 0.0793,-13.69064 1.13305,-2.66544 3.14188,-5.21314 5.48142,-6.95184 3.57336,-2.65565 8.40142,-4.02196 12.32469,-3.4878 1.61173,0.21943 3.28397,0.5927 4.06145,0.90658 3.444371,1.39051 6.296211,3.47898 8.142421,5.96289 1.356299,1.82477 2.714739,4.75236 3.03408,6.53878 0.154811,0.86609 0.448649,1.12011 1.036939,0.89644 0.418309,-0.15904 1.14707,-0.3424 4.17271,-1.04984 0.654531,-0.15304 1.478409,-0.34989 1.83085,-0.43745 0.352441,-0.0876 1.42349,-0.29357 2.38011,-0.45782 0.95663,-0.16425 2.15125,-0.37296 2.654742,-0.46381 0.947769,-0.17101 3.874868,-0.61606 5.950278,-0.90471 2.526741,-0.35143 6.168551,-0.7391 6.921971,-0.73686 0.43375,10e-4 1.340019,-0.077 2.013939,-0.17394 0.673931,-0.097 4.12419,-0.31725 7.667242,-0.48952 6.081588,-0.29571 6.80357,-0.29567 12.907531,6.88e-4 3.55608,0.17265 7.017,0.39294 7.69093,0.48952 0.67392,0.0966 1.58019,0.17455 2.01393,0.173259 0.75882,-0.002 4.44724,0.391131 6.92198,0.738271 4.6999,0.659269 5.49081,0.78498 8.60501,1.36776 1.60574,0.3005 2.17905,0.42306 4.21096,0.90021 0.65453,0.15371 1.76014,0.41314 2.45691,0.57651 0.69675,0.16337 1.46887,0.37385 1.71581,0.46774 0.58828,0.22366 0.88211,-0.0303 1.03693,-0.89644 0.31934,-1.78643 1.67777,-4.71401 3.03407,-6.53878 1.52245,-2.04831 4.43623,-4.362 6.77435,-5.37919 1.58282,-0.6886 1.67337,-0.72077 2.83276,-1.00646 2.31464,-0.57035 4.2182,-0.71988 6.10214,-0.47933 5.02666,0.64179 9.16292,2.95043 12.13565,6.77343 3.82887,4.92401 4.72311,11.83777 2.24436,17.35235 -0.23887,0.53141 -0.4343,1.00716 -0.4343,1.05722 0,0.26241 -1.65785,2.70043 -2.49505,3.669209 -1.14342,1.323139 -3.09505,2.95148 -4.37064,3.646681 -1.49655,0.815599 -1.47237,0.74939 -0.9098,2.492118 0.27232,0.843582 0.56396,1.69858 0.64806,1.899971 0.2095,0.50165 0.54083,1.681339 0.71987,2.56319 0.0818,0.402791 0.31885,1.43265 0.52681,2.288569 0.20796,0.855922 0.45774,1.968172 0.55508,2.471651 0.76631,3.963523 0.80153,4.164253 1.02827,5.858743 0.0539,0.40279 0.217,1.59742 0.36243,2.65474 0.8274,6.01545 1.09715,10.6295 1.09715,18.76625 0,8.78681 -0.17791,11.68936 -1.11661,18.217 -0.39434,2.74214 -1.01687,6.01519 -1.35809,7.14033 -0.0763,0.25174 -0.27942,0.99325 -0.45125,1.64777 -0.17185,0.65454 -0.38708,1.33312 -0.47833,1.50798 -0.0912,0.17485 -0.16588,0.43392 -0.16588,0.57572 0,0.36602 -1.42746,3.878 -1.97862,4.86801 -0.25398,0.45618 -0.61935,1.11104 -0.81197,1.45524 -0.86288,1.54201 -2.42433,3.30131 -3.92998,4.42798 -0.52437,0.39237 -0.9965,0.7134 -1.0492,0.7134 -0.0527,0 -0.52994,0.27635 -1.06054,0.61411 -1.62945,1.03721 -3.2215,1.89785 -6.27425,3.39172 -2.61226,1.27832 -3.47087,1.67744 -4.7602,2.21279 -0.20141,0.0836 -0.69573,0.28959 -1.09853,0.45771 -0.40279,0.16812 -0.89712,0.37418 -1.09851,0.4579 -0.20139,0.0837 -0.65452,0.25529 -1.00697,0.38126 -0.35244,0.12596 -0.88796,0.33304 -1.19005,0.46018 -0.75987,0.31979 -2.66929,1.00489 -3.11245,1.11674 -0.20139,0.0509 -0.53095,0.15922 -0.73234,0.24085 -0.52274,0.21191 -1.87606,0.65042 -2.83782,0.91952 -0.45315,0.12679 -1.15345,0.33491 -1.55624,0.4625 -0.40278,0.12759 -1.10309,0.33299 -1.55621,0.45646 -0.45315,0.12346 -1.19465,0.33064 -1.64778,0.4604 -0.45314,0.12975 -1.02986,0.28163 -1.2816,0.3375 -0.33787,0.075 -0.5487,0.33091 -0.80521,0.97745 -0.38812,0.97825 -1.64207,3.60669 -1.99006,4.17139 -0.39297,0.63772 -1.96121,2.83013 -2.38318,3.33167 -1.24835,1.48385 -1.62476,1.86215 -2.97499,2.98992 -2.65285,2.21577 -5.7102,3.92668 -8.97466,5.02229 -1.99929,0.67098 -2.43066,0.78293 -5.02523,1.30408 -3.024462,0.60751 -8.803412,0.89741 -12.083642,0.60618 z m 9.379741,-3.28926 c 4.01949,-0.59311 6.38544,-1.20767 8.92881,-2.31928 4.79079,-2.09388 8.40423,-5.37003 10.78081,-9.77449 0.82487,-1.5287 0.92983,-1.98854 0.43316,-1.89755 -0.17621,0.0323 -1.02071,0.19437 -1.87661,0.36018 -6.14656,1.19071 -10.92472,1.82887 -15.92844,2.12737 -7.696551,0.45914 -11.245132,0.41654 -18.216993,-0.21874 -3.503049,-0.3192 -7.206819,-0.76305 -8.879649,-1.06412 -0.654529,-0.1178 -1.601999,-0.28732 -2.10548,-0.37673 -0.781,-0.13867 -2.79867,-0.53776 -4.256741,-0.84197 -0.70376,-0.14683 -0.53321,0.49754 0.706569,2.66969 0.539872,0.94588 2.283431,3.24552 3.170632,4.18184 2.09033,2.20609 5.799439,4.46914 9.167641,5.59348 2.328097,0.77714 3.650879,1.07894 6.774158,1.54556 1.580031,0.23606 9.730251,0.2467 11.302133,0.0147 z m -7.331782,-16.09824 c -0.045,-1.41932 -0.22462,-2.67207 -0.787749,-5.49256 -0.255532,-1.27983 -1.243502,-4.4304 -1.461151,-4.65953 -0.0909,-0.0957 -0.165219,-0.27513 -0.165219,-0.39882 0,-0.40742 -1.28778,-2.39618 -2.065001,-3.18907 -0.902431,-0.92061 -1.967839,-1.44653 -2.94167,-1.45209 -1.1142,-0.006 -2.574232,-0.51134 -3.117281,-1.07816 -0.55408,-0.57833 -0.770639,-1.50485 -0.58411,-2.4991 0.252421,-1.34554 3.659632,-4.39153 6.236401,-5.57525 1.983071,-0.91097 4.47139,-1.46991 6.556899,-1.47281 1.58365,-0.002 4.040032,0.38759 4.746141,0.75317 0.17485,0.0905 0.44599,0.1646 0.60253,0.1646 0.423892,0 2.379592,1.04132 3.883812,2.06795 1.71762,1.17228 3.62723,3.19004 3.87776,4.09737 0.2438,0.88295 -0.009,1.86393 -0.6436,2.49864 -0.52927,0.52928 -2.05019,1.03746 -3.12329,1.04359 -2.18581,0.0125 -4.109971,2.12756 -5.742612,6.31243 -0.142761,0.3659 -0.603671,1.99449 -0.906769,3.20399 -0.363792,1.45164 -0.722281,4.03832 -0.773912,5.58411 l -0.055,1.64777 1.464681,0.0628 c 1.48169,0.0636 5.327282,-0.18313 8.513472,-0.54615 0.95662,-0.109 2.31603,-0.26387 3.02091,-0.34417 1.73927,-0.19814 3.81854,-0.50307 5.03485,-0.73836 0.55383,-0.10714 1.41891,-0.26924 1.9224,-0.36024 1.55907,-0.28177 3.80282,-0.74606 4.7384,-0.9805 0.77175,-0.19339 0.92465,-0.31009 1.12101,-0.8557 0.75729,-2.10403 1.0454,-7.93263 0.55893,-11.30726 -0.29086,-2.01765 -0.64194,-3.76148 -1.02992,-5.11563 -0.0938,-0.32727 -0.2579,-0.90398 -0.36476,-1.2816 -0.10684,-0.37761 -0.32267,-1.01613 -0.47963,-1.41891 -0.15696,-0.40279 -0.34265,-0.89712 -0.41266,-1.09851 -0.07,-0.2014 -0.57255,-1.27244 -1.11675,-2.38011 -0.98893,-2.01284 -1.82047,-3.28708 -3.94277,-6.04182 -1.36624,-1.77339 -3.92362,-5.36154 -3.92362,-5.50509 0,-0.0569 -0.20597,-0.37349 -0.45771,-0.70354 -0.25174,-0.33006 -0.45772,-0.64758 -0.45772,-0.70563 0,-0.0581 -0.40141,-0.75274 -0.89202,-1.54377 -1.0077,-1.62474 -3.68511,-7.00783 -3.68511,-7.40912 0,-0.14447 -0.0709,-0.34094 -0.15751,-0.43661 -0.0866,-0.0957 -0.29026,-0.58588 -0.45251,-1.08936 -0.16225,-0.50348 -0.50331,-1.52679 -0.75792,-2.27401 -0.63358,-1.85942 -0.63194,-3.49236 0.005,-4.83726 1.32107,-2.79015 10.52208,-9.75469 15.00296,-11.35624 0.50348,-0.17995 1.0802,-0.39617 1.2816,-0.48048 0.93733,-0.39242 2.96226,-0.73369 4.3533,-0.73369 2.35535,0 4.46104,0.8199 6.28956,2.44899 2.06285,1.83785 2.64526,3.85826 1.5486,5.37215 -0.85356,1.17831 -1.47058,1.50837 -4.04415,2.16332 -1.61635,0.41133 -10.7159,0.40745 -13.44083,-0.006 -0.9982,-0.15136 -2.26046,-0.2752 -2.80502,-0.2752 -0.95364,0 -1.0381,0.0421 -2.29193,1.14428 -2.36932,2.08263 -3.21825,2.96917 -3.35127,3.4998 -0.24034,0.95868 1.35963,5.33077 3.49301,9.54504 2.07436,4.09768 3.95649,7.00178 7.77199,11.9921 2.43293,3.18203 3.99507,5.81627 4.83146,8.14729 0.18065,0.50349 0.39459,1.08021 0.47541,1.28161 2.02992,5.05823 2.8731,11.50792 2.22596,17.02694 -0.12988,1.10767 -0.30709,2.24051 -0.39379,2.51743 -0.17729,0.5662 0.0491,0.64117 1.0318,0.34176 0.29195,-0.089 0.90156,-0.26338 1.35469,-0.38763 3.65384,-1.00183 9.92669,-3.20954 13.27369,-4.67166 6.76414,-2.95485 11.95821,-5.88335 13.60653,-7.67154 1.44623,-1.56898 2.72847,-3.94554 4.05812,-7.52148 0.42081,-1.13171 0.98336,-3.18976 1.37624,-5.03484 0.16081,-0.75523 0.36873,-1.6615 0.46205,-2.01395 0.0933,-0.35243 0.29964,-1.50588 0.45849,-2.56319 1.13263,-7.53895 1.2644,-9.55696 1.2493,-19.13243 -0.0108,-6.84539 -0.0749,-9.07911 -0.31359,-10.92345 -0.16502,-1.27515 -0.30003,-2.70744 -0.30003,-3.18289 0,-0.47545 -0.0787,-1.36828 -0.17497,-1.98406 -0.0962,-0.6158 -0.30705,-2.10829 -0.46846,-3.31665 -0.16143,-1.20837 -0.36441,-2.56778 -0.45108,-3.02091 -0.0867,-0.45314 -0.29498,-1.60658 -0.46291,-2.563198 -0.16792,-0.956623 -0.37462,-2.027672 -0.45933,-2.38011 -0.0847,-0.352441 -0.28786,-1.217522 -0.45142,-1.922402 -0.16357,-0.704868 -0.36827,-1.56995 -0.4549,-1.922388 -0.19113,-0.777602 -1.62413,-5.438233 -1.82952,-5.950281 -0.0808,-0.20139 -0.29082,-0.73692 -0.46675,-1.190051 -1.0701,-2.756191 -2.68088,-5.209529 -4.49635,-6.848239 -1.04979,-0.9476 -3.55096,-2.85529 -3.74355,-2.85529 -0.0624,0 -0.37578,-0.192451 -0.69632,-0.42766 -0.48595,-0.35658 -3.66965,-1.96822 -4.97686,-2.519371 -1.79792,-0.75804 -5.09052,-1.92307 -6.68262,-2.364529 -0.45314,-0.125641 -1.15344,-0.33284 -1.55622,-0.46042 -0.92434,-0.29279 -1.85512,-0.537391 -3.47863,-0.914121 -0.70488,-0.163569 -1.56996,-0.37091 -1.92239,-0.460759 -0.74364,-0.18957 -3.1597,-0.68041 -4.4856,-0.911281 -0.50349,-0.0877 -1.37207,-0.248659 -1.9302,-0.35777 -2.83142,-0.55352 -11.0743,-1.488 -16.56143,-1.87755 -4.37153,-0.31035 -18.98442,-0.309599 -22.977221,10e-4 -5.18759,0.40377 -10.897312,0.99583 -12.724432,1.31943 -0.503489,0.0892 -1.57453,0.2594 -2.380109,0.37828 -0.80558,0.11888 -1.835431,0.28167 -2.288569,0.36176 -0.453142,0.0801 -1.398821,0.2374 -2.10152,0.34959 -0.702691,0.11219 -1.608971,0.29057 -2.013931,0.39639 -0.925201,0.24176 -1.679009,0.4247 -3.299511,0.80074 -1.623499,0.37673 -2.55429,0.62132 -3.478619,0.91411 -0.402789,0.1276 -1.103091,0.33479 -1.556229,0.46043 -1.592091,0.44146 -4.884701,1.60649 -6.682621,2.36453 -1.30721,0.55115 -4.49091,2.16279 -4.97686,2.51936 -0.32054,0.23522 -0.63076,0.42766 -0.68937,0.42766 -0.0586,0 -0.70262,0.42864 -1.43113,0.95253 -1.84315,1.32546 -3.86207,3.312341 -4.80631,4.730029 -0.689,1.034492 -2.10236,3.81191 -2.10236,4.131392 0,0.0599 -0.11477,0.368488 -0.25505,0.685789 -0.14028,0.31732 -0.59564,1.689169 -1.01192,3.04859 -0.41627,1.359411 -0.83702,2.724661 -0.935,3.033909 -0.098,0.309231 -0.17814,0.713941 -0.17814,0.899332 0,0.185388 -0.13122,0.797459 -0.2916,1.360138 -0.41264,1.447781 -0.55097,2.071232 -0.89726,4.043971 -0.16793,0.95662 -0.37735,2.11006 -0.46539,2.5632 -0.088,0.45314 -0.28998,1.85374 -0.44877,3.11245 -0.15879,1.25871 -0.36848,2.74666 -0.46599,3.30656 -0.0975,0.55989 -0.17727,1.39654 -0.17727,1.85921 0,0.46267 -0.13528,1.9407 -0.30061,3.28452 -0.45218,3.67525 -0.4536,18.43013 -0.002,22.76578 0.54404,5.22523 1.03151,8.36307 1.89144,12.17518 1.18828,5.26766 3.13865,9.79626 5.25081,12.19192 1.66741,1.89122 6.73993,4.79595 13.57457,7.77335 3.139321,1.36758 8.405021,3.26581 11.992099,4.32301 0.553831,0.16322 1.212932,0.35967 1.464681,0.43655 1.04462,0.31901 2.21153,0.58678 2.268,0.52045 0.0333,-0.0391 -0.0899,-1.26567 -0.273669,-2.72578 -0.18378,-1.4601 -0.33432,-3.35504 -0.334521,-4.21096 -5.29e-4,-2.07052 0.75682,-7.73749 1.235581,-9.24581 0.0959,-0.30209 0.275899,-0.92001 0.400021,-1.37315 0.259138,-0.94604 0.50814,-1.68792 0.829587,-2.47165 0.123902,-0.30209 0.408163,-1.00239 0.631701,-1.55622 0.345511,-0.85605 1.36057,-2.86483 2.238132,-4.42921 0.130378,-0.2324 1.060928,-1.51778 2.067898,-2.85638 1.00697,-1.33861 2.34604,-3.15116 2.9757,-4.02789 0.629672,-0.87673 1.22699,-1.69356 1.32737,-1.81518 0.100391,-0.12162 0.18252,-0.25641 0.18252,-0.29953 0,-0.0431 0.320932,-0.56153 0.713182,-1.15201 0.392239,-0.59049 0.873109,-1.36197 1.068599,-1.71441 0.19549,-0.35244 0.63051,-1.13512 0.966711,-1.73931 0.336198,-0.60418 0.894048,-1.67523 1.23966,-2.38011 0.345609,-0.70488 0.698698,-1.41953 0.784648,-1.58811 0.405162,-0.79471 1.179801,-2.82225 1.834311,-4.80113 0.894401,-2.70412 0.841701,-2.94162 -1.014909,-4.57407 -0.700792,-0.61618 -1.65694,-1.47048 -2.1248,-1.89844 -1.000192,-0.91492 -1.395931,-0.95715 -4.66684,-0.49799 -1.410671,0.19802 -3.526142,0.28038 -7.217971,0.28099 -4.760741,7.9e-4 -5.343851,-0.0333 -6.595592,-0.38577 -0.755229,-0.21266 -1.577038,-0.43465 -1.826228,-0.4933 -0.2492,-0.0587 -0.887719,-0.54126 -1.418921,-1.07246 -0.945009,-0.945 -0.965779,-0.98876 -0.964099,-2.03049 0.0011,-0.84118 0.11467,-1.26163 0.539768,-2.00278 0.973231,-1.69685 3.065222,-3.24414 5.395633,-3.99077 1.177898,-0.37737 3.953179,-0.38168 5.15271,-0.008 0.49625,0.15461 1.19063,0.36686 1.543058,0.47167 1.491202,0.44347 3.217902,1.22734 4.675621,2.12261 0.19758,0.12134 0.812369,0.48172 1.3662,0.80084 1.01863,0.58693 4.35927,2.96461 5.036751,3.58486 0.202427,0.18534 0.77891,0.66654 1.281068,1.06932 1.63694,1.31305 3.540162,3.34273 4.017221,4.28419 0.876459,1.72959 0.612669,3.54884 -1.184021,8.16562 -1.450678,3.72769 -5.113128,10.21809 -7.82415,13.8655 -6.15057,8.27502 -6.952599,9.83238 -8.65261,16.80131 -0.652209,2.67367 -0.872469,9.38083 -0.39682,12.08364 0.31614,1.79641 0.607841,2.77321 0.846821,2.83569 0.106219,0.0278 0.522679,0.13639 0.92547,0.24136 0.402791,0.10497 1.432639,0.32742 2.288569,0.49432 0.855922,0.16692 1.88577,0.37295 2.288572,0.45786 2.84571,0.59986 10.549138,1.63757 12.358258,1.66475 0.654532,0.01 1.64319,0.0817 2.197021,0.15973 0.553839,0.078 1.993781,0.13166 3.199879,0.11921 l 2.192901,-0.0226 z m 2.446089,-10.12762 c 1.547262,-4.43174 4.107611,-7.20645 7.372473,-7.98967 0.52221,-0.12528 0.94947,-0.31164 0.94947,-0.41414 0,-0.51829 -2.50472,-2.44841 -4.035423,-3.10966 -1.85452,-0.80114 -2.60228,-0.93955 -5.01527,-0.92826 -1.880608,0.009 -2.627058,0.0894 -3.490669,0.37697 -2.16808,0.72195 -3.17604,1.30874 -4.639871,2.70112 l -0.97817,0.93041 1.48557,0.48944 c 2.71535,0.89462 4.729731,2.8159 6.1166,5.83394 1.05025,2.28549 1.219872,2.71694 1.219872,3.10283 0,0.80919 0.58646,0.2357 1.015418,-0.99298 z M 69.139259,115.00654 c 3.51387,-0.33835 3.599277,-0.35373 3.342928,-0.60183 -0.56266,-0.54452 -3.03901,-1.94398 -4.349898,-2.45825 -0.251751,-0.0988 -0.70435,-0.27958 -1.005811,-0.40184 -0.30144,-0.12225 -1.178341,-0.33308 -1.948641,-0.46852 -1.17721,-0.20697 -1.590698,-0.20646 -2.592919,0.003 -1.855681,0.38826 -3.789981,1.83922 -3.789981,2.84295 0,0.91645 5.78727,1.52305 10.344322,1.08425 z m 58.599831,-0.13735 c 1.51454,-0.23277 2.45915,-0.5965 2.45915,-0.9469 0,-0.58477 -1.12172,-1.79332 -2.18235,-2.35128 -0.94764,-0.49852 -2.7193,-0.75263 -3.82899,-0.54918 -2.57719,0.47249 -5.31404,1.57637 -7.02841,2.83483 -1.05645,0.77551 -0.94453,0.96292 0.58995,0.98787 0.55383,0.009 1.37771,0.0863 1.83084,0.17167 1.00601,0.18963 6.62862,0.0883 8.15981,-0.14701 z M 30.776887,82.015699 c 1.52342,-2.977829 4.22593,-5.900729 7.42873,-8.034489 3.12299,-2.0806 5.14392,-3.10437 9.32956,-4.72617 0.201391,-0.078 0.677921,-0.27689 1.05895,-0.44189 0.381029,-0.165 0.834171,-0.30262 1.00697,-0.30583 0.472332,-0.009 0.95499,-0.44491 0.95499,-0.86299 0,-1.09308 -1.431229,-4.48851 -2.459779,-5.83557 -1.532911,-2.00758 -2.768901,-3.0998 -4.772101,-4.21697 -1.13359,-0.6322 -1.75193,-0.86867 -4.04087,-1.54533 -0.71777,-0.21218 -5.23545,-0.21751 -5.79135,-0.007 -0.23131,0.0877 -0.91489,0.31097 -1.51907,0.49624 -3.30123,1.01227 -6.49056,3.57239 -8.05576,6.46647 -0.57696,1.0668 -1.1103,2.38875 -1.48466,3.67995 -0.48116,1.65952 -0.48229,5.29086 -0.002,6.95725 0.85557,2.96941 2.18167,5.22102 4.11554,6.98783 1.20348,1.099519 1.835861,1.615329 1.99558,1.627741 0.0748,0.006 0.42428,0.207028 0.77672,0.447159 0.35244,0.240131 0.69312,0.441349 0.75706,0.447159 0.0639,0.006 0.37969,-0.504378 0.70166,-1.133729 z M 161.138,81.79015 c 1.07032,-0.845431 2.91102,-2.82581 3.53748,-3.80589 0.37134,-0.58096 0.67515,-1.09364 0.67515,-1.13927 0,-0.0457 0.19575,-0.51778 0.43497,-1.04919 0.86634,-1.92453 1.12011,-3.20112 1.12011,-5.63488 0,-2.80201 -0.46247,-4.61299 -1.8297,-7.16499 -1.16861,-2.18127 -3.76249,-4.58679 -6.13335,-5.68797 -2.55035,-1.18454 -2.97943,-1.28229 -6.04183,-1.37632 -2.44509,-0.0751 -2.67977,-0.0445 -4.94331,0.64283 -4.2749,1.29818 -8.10186,5.38472 -9.2627,9.891 -0.17711,0.68748 -0.27423,1.37447 -0.21581,1.52666 0.0584,0.15218 0.67016,0.46031 1.35949,0.68473 1.24278,0.4046 1.55975,0.52108 2.44338,0.89792 0.25174,0.10736 0.78727,0.33336 1.19005,0.50222 0.40279,0.16887 1.76822,0.81939 3.0343,1.44561 5.90601,2.92117 9.80228,6.4807 11.89441,10.866419 l 0.3746,0.78527 0.95169,-0.51064 c 0.52343,-0.280858 1.15842,-0.673928 1.41107,-0.873509 z"
       id="path852"
       sodipodi:nodetypes="sssssssssssssssssssssssssssssssssssssssssssssssssssssssssssssssssssssssssssssssssssssssssssssssssssssssssssssssssssssssssssssscssscssssscssscssssssssssssssssssssssssssssscsssssscssssssssssssssssssssssssssssssssssssssssssssssssssssssssssscssssssscsssssssssssssssssscsssssssssssssssssssssssscsssssssscsssscsssscsccsssssssscsssssssssssscscscccsssssssssssssssscss" />
  </g>
</svg>
